<svg width="24" height="24" viewBox="0 0 24 24" fill="none" xmlns="http://www.w3.org/2000/svg"><g id="arrow_back"><mask id="mask0_103_413" style="mask-type:alpha" maskUnits="userSpaceOnUse" x="0" y="0" width="24" height="24"><rect id="Bounding box" width="24" height="24" fill="#D9D9D9"/></mask><g mask="url(#mask0_103_413)"><path id="arrow_back_2" d="M7.8248 13L12.7248 17.9C12.9248 18.1 13.0206 18.3333 13.0123 18.6C13.004 18.8667 12.8998 19.1 12.6998 19.3C12.4998 19.4833 12.2665 19.5792 11.9998 19.5875C11.7331 19.5958 11.4998 19.5 11.2998 19.3L4.6998 12.7C4.5998 12.6 4.52897 12.4917 4.4873 12.375C4.44564 12.2583 4.4248 12.1333 4.4248 12C4.4248 11.8667 4.44564 11.7417 4.4873 11.625C4.52897 11.5083 4.5998 11.4 4.6998 11.3L11.2998 4.7C11.4831 4.51667 11.7123 4.425 11.9873 4.425C12.2623 4.425 12.4998 4.51667 12.6998 4.7C12.8998 4.9 12.9998 5.1375 12.9998 5.4125C12.9998 5.6875 12.8998 5.925 12.6998 6.125L7.8248 11H18.9998C19.2831 11 19.5206 11.0958 19.7123 11.2875C19.904 11.4792 19.9998 11.7167 19.9998 12C19.9998 12.2833 19.904 12.5208 19.7123 12.7125C19.5206 12.9042 19.2831 13 18.9998 13H7.8248Z" fill="white"/></g></g></svg>
