<svg width="24" height="24" viewBox="0 0 24 24" fill="none" xmlns="http://www.w3.org/2000/svg"><g id="Filters icons"><mask id="mask0_23_5039" style="mask-type:alpha" maskUnits="userSpaceOnUse" x="0" y="0" width="24" height="24"><rect id="Bounding box" width="24" height="24" fill="#D9D9D9"/></mask><g mask="url(#mask0_23_5039)"><path id="note_stack" d="M7.00001 20V8.975C7.00001 8.425 7.20001 7.95833 7.60001 7.575C8.00001 7.19167 8.47501 7 9.02501 7H20C20.55 7 21.0208 7.19583 21.4125 7.5875C21.8042 7.97917 22 8.45 22 9V17L17 22H9.00001C8.45001 22 7.97918 21.8042 7.58751 21.4125C7.19585 21.0208 7.00001 20.55 7.00001 20ZM2.02501 6.25C1.92501 5.7 2.03335 5.20417 2.35001 4.7625C2.66668 4.32083 3.10001 4.05 3.65001 3.95L14.5 2.025C15.05 1.925 15.5458 2.03333 15.9875 2.35C16.4292 2.66667 16.7 3.1 16.8 3.65L17.05 5H15L14.825 4L4.00001 5.925L5.00001 11.575V18.55C4.73335 18.4 4.50418 18.2 4.31251 17.95C4.12085 17.7 4.00001 17.4167 3.95001 17.1L2.02501 6.25ZM9.00001 9V20H16V17C16 16.7167 16.0958 16.4792 16.2875 16.2875C16.4792 16.0958 16.7167 16 17 16H20V9H9.00001Z" fill="#6BC1E1"/></g></g></svg>
