<svg width="154" height="44" viewBox="0 0 154 44" fill="none" xmlns="http://www.w3.org/2000/svg">
<path d="M60.6662 19.0001V16.6241C61.3849 16.6241 62.0596 16.4921 62.6902 16.2281C63.3209 15.9494 63.8709 15.5681 64.3402 15.0841C64.8096 14.6001 65.1762 14.0354 65.4402 13.3901C65.7042 12.7448 65.8362 12.0481 65.8362 11.3001C65.8362 10.5521 65.7042 9.85543 65.4402 9.2101C65.1762 8.56476 64.8096 8.0001 64.3402 7.5161C63.8709 7.0321 63.3209 6.6581 62.6902 6.3941C62.0596 6.11543 61.3849 5.9761 60.6662 5.9761V3.6001C62.1769 3.6001 63.5116 3.9301 64.6702 4.5901C65.8436 5.23543 66.7602 6.13743 67.4202 7.2961C68.0949 8.45477 68.4322 9.78943 68.4322 11.3001C68.4322 12.7961 68.0949 14.1234 67.4202 15.2821C66.7602 16.4408 65.8436 17.3501 64.6702 18.0101C63.5116 18.6701 62.1769 19.0001 60.6662 19.0001ZM57.4762 19.0001V16.6241H60.6662V19.0001H57.4762ZM55.8262 19.0001V3.6001H58.3782V19.0001H55.8262ZM57.4762 5.9761V3.6001H60.6662V5.9761H57.4762Z" fill="#124658"/>
<path d="M75.2591 19.2641C74.1884 19.2641 73.2351 19.0221 72.3991 18.5381C71.5631 18.0394 70.9105 17.3574 70.4411 16.4921C69.9718 15.6268 69.7371 14.6294 69.7371 13.5001C69.7371 12.3708 69.9791 11.3734 70.4631 10.5081C70.9471 9.64276 71.6071 8.9681 72.4431 8.4841C73.2791 7.98543 74.2471 7.7361 75.3471 7.7361C76.3151 7.7361 77.1951 7.99276 77.9871 8.5061C78.7791 9.00477 79.4025 9.73077 79.8571 10.6841C80.3265 11.6374 80.5611 12.7741 80.5611 14.0941H78.0751C78.0898 13.1408 77.9798 12.3561 77.7451 11.7401C77.5251 11.1241 77.2025 10.6694 76.7771 10.3761C76.3518 10.0681 75.8458 9.9141 75.2591 9.9141C74.6431 9.9141 74.1151 10.0534 73.6751 10.3321C73.2498 10.6108 72.9198 11.0214 72.6851 11.5641C72.4505 12.0921 72.3331 12.7594 72.3331 13.5661C72.3331 14.2848 72.4725 14.9008 72.7511 15.4141C73.0298 15.9274 73.4038 16.3234 73.8731 16.6021C74.3571 16.8661 74.8925 16.9981 75.4791 16.9981C76.1245 16.9981 76.6598 16.8514 77.0851 16.5581C77.5105 16.2501 77.8405 15.8614 78.0751 15.3921L80.3411 16.3601C80.0331 16.9468 79.6445 17.4601 79.1751 17.9001C78.7058 18.3401 78.1411 18.6774 77.4811 18.9121C76.8211 19.1468 76.0805 19.2641 75.2591 19.2641ZM71.3431 14.0941L71.3651 12.1361H79.2851V14.0941H71.3431Z" fill="#124658"/>
<path d="M85.2684 19.0001L89.5584 8.0001H92.1104L87.5784 19.0001H85.2684ZM85.0924 19.0001L80.5384 8.0001H83.0684L87.3804 19.0001H85.0924Z" fill="#124658"/>
<path d="M97.9475 19.2641C96.8768 19.2641 95.9235 19.0221 95.0875 18.5381C94.2515 18.0394 93.5988 17.3574 93.1295 16.4921C92.6601 15.6268 92.4255 14.6294 92.4255 13.5001C92.4255 12.3708 92.6675 11.3734 93.1515 10.5081C93.6355 9.64276 94.2955 8.9681 95.1315 8.4841C95.9675 7.98543 96.9355 7.7361 98.0355 7.7361C99.0035 7.7361 99.8835 7.99276 100.675 8.5061C101.467 9.00477 102.091 9.73077 102.545 10.6841C103.015 11.6374 103.249 12.7741 103.249 14.0941H100.763C100.778 13.1408 100.668 12.3561 100.433 11.7401C100.213 11.1241 99.8908 10.6694 99.4655 10.3761C99.0401 10.0681 98.5341 9.9141 97.9475 9.9141C97.3315 9.9141 96.8035 10.0534 96.3635 10.3321C95.9381 10.6108 95.6081 11.0214 95.3735 11.5641C95.1388 12.0921 95.0215 12.7594 95.0215 13.5661C95.0215 14.2848 95.1608 14.9008 95.4395 15.4141C95.7181 15.9274 96.0921 16.3234 96.5615 16.6021C97.0455 16.8661 97.5808 16.9981 98.1675 16.9981C98.8128 16.9981 99.3481 16.8514 99.7735 16.5581C100.199 16.2501 100.529 15.8614 100.763 15.3921L103.029 16.3601C102.721 16.9468 102.333 17.4601 101.863 17.9001C101.394 18.3401 100.829 18.6774 100.169 18.9121C99.5095 19.1468 98.7688 19.2641 97.9475 19.2641ZM94.0315 14.0941L94.0535 12.1361H101.973V14.0941H94.0315Z" fill="#124658"/>
<path d="M104.823 19.0001L104.845 3.6001H107.309L107.287 19.0001H104.823Z" fill="#124658"/>
<path d="M114.818 19.2641C113.703 19.2641 112.713 19.0221 111.848 18.5381C110.997 18.0394 110.33 17.3574 109.846 16.4921C109.362 15.6268 109.12 14.6294 109.12 13.5001C109.12 12.3708 109.354 11.3734 109.824 10.5081C110.308 9.64276 110.975 8.9681 111.826 8.4841C112.691 7.98543 113.674 7.7361 114.774 7.7361C115.888 7.7361 116.871 7.98543 117.722 8.4841C118.572 8.9681 119.24 9.64276 119.724 10.5081C120.208 11.3734 120.45 12.3708 120.45 13.5001C120.45 14.6294 120.208 15.6268 119.724 16.4921C119.24 17.3574 118.572 18.0394 117.722 18.5381C116.886 19.0221 115.918 19.2641 114.818 19.2641ZM114.818 16.8881C115.404 16.8881 115.918 16.7488 116.358 16.4701C116.812 16.1768 117.164 15.7734 117.414 15.2601C117.678 14.7468 117.81 14.1601 117.81 13.5001C117.81 12.8401 117.678 12.2534 117.414 11.7401C117.164 11.2268 116.805 10.8308 116.336 10.5521C115.881 10.2588 115.36 10.1121 114.774 10.1121C114.187 10.1121 113.666 10.2588 113.212 10.5521C112.757 10.8308 112.398 11.2268 112.134 11.7401C111.884 12.2534 111.76 12.8401 111.76 13.5001C111.76 14.1601 111.884 14.7468 112.134 15.2601C112.398 15.7734 112.757 16.1768 113.212 16.4701C113.681 16.7488 114.216 16.8881 114.818 16.8881Z" fill="#124658"/>
<path d="M122.358 23.4001V8.0001H124.668L124.822 10.0241V23.4001H122.358ZM128.298 19.2641C127.374 19.2641 126.574 19.0294 125.9 18.5601C125.24 18.0761 124.734 17.4014 124.382 16.5361C124.03 15.6708 123.854 14.6588 123.854 13.5001C123.854 12.3268 124.03 11.3148 124.382 10.4641C124.734 9.59876 125.24 8.93143 125.9 8.4621C126.574 7.9781 127.374 7.7361 128.298 7.7361C129.295 7.7361 130.16 7.9781 130.894 8.4621C131.642 8.93143 132.221 9.59876 132.632 10.4641C133.057 11.3148 133.27 12.3268 133.27 13.5001C133.27 14.6588 133.057 15.6708 132.632 16.5361C132.221 17.4014 131.642 18.0761 130.894 18.5601C130.16 19.0294 129.295 19.2641 128.298 19.2641ZM127.682 17.0201C128.268 17.0201 128.789 16.8734 129.244 16.5801C129.698 16.2721 130.058 15.8541 130.322 15.3261C130.6 14.7981 130.74 14.1894 130.74 13.5001C130.74 12.8108 130.608 12.2021 130.344 11.6741C130.094 11.1461 129.742 10.7354 129.288 10.4421C128.833 10.1488 128.305 10.0021 127.704 10.0021C127.146 10.0021 126.648 10.1488 126.208 10.4421C125.768 10.7354 125.423 11.1461 125.174 11.6741C124.939 12.2021 124.822 12.8108 124.822 13.5001C124.822 14.1894 124.939 14.7981 125.174 15.3261C125.423 15.8541 125.76 16.2721 126.186 16.5801C126.626 16.8734 127.124 17.0201 127.682 17.0201Z" fill="#124658"/>
<path d="M139.973 19.2641C138.902 19.2641 137.949 19.0221 137.113 18.5381C136.277 18.0394 135.624 17.3574 135.155 16.4921C134.685 15.6268 134.451 14.6294 134.451 13.5001C134.451 12.3708 134.693 11.3734 135.177 10.5081C135.661 9.64276 136.321 8.9681 137.157 8.4841C137.993 7.98543 138.961 7.7361 140.061 7.7361C141.029 7.7361 141.909 7.99276 142.701 8.5061C143.493 9.00477 144.116 9.73077 144.571 10.6841C145.04 11.6374 145.275 12.7741 145.275 14.0941H142.789C142.803 13.1408 142.693 12.3561 142.459 11.7401C142.239 11.1241 141.916 10.6694 141.491 10.3761C141.065 10.0681 140.559 9.9141 139.973 9.9141C139.357 9.9141 138.829 10.0534 138.389 10.3321C137.963 10.6108 137.633 11.0214 137.399 11.5641C137.164 12.0921 137.047 12.7594 137.047 13.5661C137.047 14.2848 137.186 14.9008 137.465 15.4141C137.743 15.9274 138.117 16.3234 138.587 16.6021C139.071 16.8661 139.606 16.9981 140.193 16.9981C140.838 16.9981 141.373 16.8514 141.799 16.5581C142.224 16.2501 142.554 15.8614 142.789 15.3921L145.055 16.3601C144.747 16.9468 144.358 17.4601 143.889 17.9001C143.419 18.3401 142.855 18.6774 142.195 18.9121C141.535 19.1468 140.794 19.2641 139.973 19.2641ZM136.057 14.0941L136.079 12.1361H143.999V14.0941H136.057Z" fill="#124658"/>
<path d="M148.476 13.1481C148.476 11.9601 148.703 10.9848 149.158 10.2221C149.613 9.45943 150.199 8.89476 150.918 8.5281C151.651 8.14676 152.414 7.9561 153.206 7.9561V10.3101C152.531 10.3101 151.893 10.4054 151.292 10.5961C150.705 10.7721 150.229 11.0654 149.862 11.4761C149.495 11.8868 149.312 12.4294 149.312 13.1041L148.476 13.1481ZM146.848 19.0001V8.0001H149.312V19.0001H146.848Z" fill="#124658"/>
<path d="M66.4962 40.0001L60.4902 24.6001H63.0422L69.2022 40.0001H66.4962ZM54.1982 40.0001L60.3362 24.6001H62.9102L56.9042 40.0001H54.1982ZM57.0802 36.2161V33.9501H66.2982V36.2161H57.0802Z" fill="#124658"/>
<path d="M72.6611 36.9201L71.1651 35.2261L76.8851 29.0001H79.8551L72.6611 36.9201ZM70.3071 40.0001V24.6001H72.7711V40.0001H70.3071ZM77.3031 40.0001L73.4311 34.3021L75.0371 32.5861L80.2291 40.0001H77.3031Z" fill="#124658"/>
<path d="M87.5786 40.0001L87.4686 34.3461C87.4686 33.5981 87.3879 32.9748 87.2266 32.4761C87.0653 31.9774 86.8159 31.5961 86.4786 31.3321C86.1413 31.0681 85.6866 30.9361 85.1146 30.9361C84.6013 30.9361 84.1466 31.0461 83.7506 31.2661C83.3546 31.4861 83.0246 31.8234 82.7606 32.2781L80.5606 31.5081C80.8099 31.0241 81.1326 30.5694 81.5286 30.1441C81.9246 29.7188 82.4233 29.3814 83.0246 29.1321C83.6259 28.8681 84.3446 28.7361 85.1806 28.7361C86.2366 28.7361 87.1166 28.9341 87.8206 29.3301C88.5393 29.7261 89.0746 30.3128 89.4266 31.0901C89.7786 31.8674 89.9546 32.8281 89.9546 33.9721V40.0001H87.5786ZM84.4546 40.2641C83.1493 40.2641 82.1299 39.9708 81.3966 39.3841C80.6779 38.7974 80.3186 37.9688 80.3186 36.8981C80.3186 35.7541 80.6999 34.8814 81.4626 34.2801C82.2399 33.6788 83.3179 33.3781 84.6966 33.3781H88.1506L88.1726 35.2701H85.4666C84.4839 35.2701 83.7946 35.4094 83.3986 35.6881C83.0173 35.9521 82.8266 36.3334 82.8266 36.8321C82.8266 37.2574 82.9953 37.5948 83.3326 37.8441C83.6846 38.0788 84.1686 38.1961 84.7846 38.1961C85.3273 38.1961 85.7966 38.0714 86.1926 37.8221C86.6033 37.5581 86.9186 37.2208 87.1386 36.8101C87.3586 36.3848 87.4686 35.9301 87.4686 35.4461H88.3926C88.3926 36.9421 88.0699 38.1228 87.4246 38.9881C86.7939 39.8388 85.8039 40.2641 84.4546 40.2641Z" fill="#124658"/>
<path d="M99.9706 40.0001L99.8606 37.9541V24.6001H102.303V40.0001H99.9706ZM96.3846 40.2641C95.3873 40.2641 94.5146 40.0294 93.7666 39.5601C93.0333 39.0761 92.4539 38.4014 92.0286 37.5361C91.6179 36.6708 91.4126 35.6588 91.4126 34.5001C91.4126 33.3268 91.6179 32.3148 92.0286 31.4641C92.4539 30.5988 93.0333 29.9314 93.7666 29.4621C94.5146 28.9781 95.3873 28.7361 96.3846 28.7361C97.3086 28.7361 98.1006 28.9781 98.7606 29.4621C99.4353 29.9314 99.9486 30.5988 100.301 31.4641C100.653 32.3148 100.829 33.3268 100.829 34.5001C100.829 35.6588 100.653 36.6708 100.301 37.5361C99.9486 38.4014 99.4353 39.0761 98.7606 39.5601C98.1006 40.0294 97.3086 40.2641 96.3846 40.2641ZM97.0006 38.0201C97.5579 38.0201 98.0493 37.8734 98.4746 37.5801C98.9146 37.2721 99.2519 36.8541 99.4866 36.3261C99.7359 35.7981 99.8606 35.1894 99.8606 34.5001C99.8606 33.8108 99.7359 33.2021 99.4866 32.6741C99.2519 32.1461 98.9146 31.7354 98.4746 31.4421C98.0493 31.1488 97.5506 31.0021 96.9786 31.0021C96.3919 31.0021 95.8713 31.1488 95.4166 31.4421C94.9619 31.7354 94.6026 32.1461 94.3386 32.6741C94.0893 33.2021 93.9573 33.8108 93.9426 34.5001C93.9573 35.1894 94.0893 35.7981 94.3386 36.3261C94.6026 36.8541 94.9619 37.2721 95.4166 37.5801C95.8859 37.8734 96.4139 38.0201 97.0006 38.0201Z" fill="#124658"/>
<path d="M109.625 40.2641C108.554 40.2641 107.601 40.0221 106.765 39.5381C105.929 39.0394 105.276 38.3574 104.807 37.4921C104.337 36.6268 104.103 35.6294 104.103 34.5001C104.103 33.3708 104.345 32.3734 104.829 31.5081C105.313 30.6428 105.973 29.9681 106.809 29.4841C107.645 28.9854 108.613 28.7361 109.713 28.7361C110.681 28.7361 111.561 28.9928 112.353 29.5061C113.145 30.0048 113.768 30.7308 114.223 31.6841C114.692 32.6374 114.927 33.7741 114.927 35.0941H112.441C112.455 34.1408 112.345 33.3561 112.111 32.7401C111.891 32.1241 111.568 31.6694 111.143 31.3761C110.717 31.0681 110.211 30.9141 109.625 30.9141C109.009 30.9141 108.481 31.0534 108.041 31.3321C107.615 31.6108 107.285 32.0214 107.051 32.5641C106.816 33.0921 106.699 33.7594 106.699 34.5661C106.699 35.2848 106.838 35.9008 107.117 36.4141C107.395 36.9274 107.769 37.3234 108.239 37.6021C108.723 37.8661 109.258 37.9981 109.845 37.9981C110.49 37.9981 111.025 37.8514 111.451 37.5581C111.876 37.2501 112.206 36.8614 112.441 36.3921L114.707 37.3601C114.399 37.9468 114.01 38.4601 113.541 38.9001C113.071 39.3401 112.507 39.6774 111.847 39.9121C111.187 40.1468 110.446 40.2641 109.625 40.2641ZM105.709 35.0941L105.731 33.1361H113.651V35.0941H105.709Z" fill="#124658"/>
<path d="M116.5 40.0001V29.0001H118.81L118.964 31.0241V40.0001H116.5ZM123.958 40.0001V34.3681L126.422 33.7081V40.0001H123.958ZM131.438 40.0001V34.3681L133.88 33.7081V40.0001H131.438ZM123.958 34.3681C123.958 33.4881 123.856 32.8134 123.65 32.3441C123.46 31.8601 123.181 31.5228 122.814 31.3321C122.462 31.1414 122.044 31.0461 121.56 31.0461C120.739 31.0314 120.101 31.3028 119.646 31.8601C119.192 32.4174 118.964 33.2168 118.964 34.2581H118.04C118.04 33.0994 118.209 32.1094 118.546 31.2881C118.884 30.4521 119.368 29.8214 119.998 29.3961C120.629 28.9561 121.377 28.7361 122.242 28.7361C123.577 28.7361 124.604 29.1468 125.322 29.9681C126.056 30.7748 126.422 32.0214 126.422 33.7081L123.958 34.3681ZM131.438 34.3681C131.438 33.4881 131.336 32.8134 131.13 32.3441C130.925 31.8601 130.639 31.5228 130.272 31.3321C129.92 31.1414 129.51 31.0461 129.04 31.0461C128.204 31.0314 127.559 31.3028 127.104 31.8601C126.65 32.4174 126.422 33.2168 126.422 34.2581H125.498C125.498 33.0994 125.667 32.1094 126.004 31.2881C126.342 30.4521 126.826 29.8214 127.456 29.3961C128.087 28.9561 128.835 28.7361 129.7 28.7361C131.035 28.7361 132.069 29.1468 132.802 29.9681C133.536 30.7748 133.895 32.0214 133.88 33.7081L131.438 34.3681Z" fill="#124658"/>
<path d="M136.109 40.0001L136.131 29.0001H138.573L138.551 40.0001H136.109ZM137.341 26.9101C136.945 26.9101 136.6 26.7708 136.307 26.4921C136.028 26.1988 135.889 25.8541 135.889 25.4581C135.889 25.0621 136.028 24.7248 136.307 24.4461C136.6 24.1674 136.945 24.0281 137.341 24.0281C137.737 24.0281 138.074 24.1674 138.353 24.4461C138.646 24.7248 138.793 25.0621 138.793 25.4581C138.793 25.8541 138.646 26.1988 138.353 26.4921C138.074 26.7708 137.737 26.9101 137.341 26.9101Z" fill="#124658"/>
<path d="M146.053 40.2641C144.982 40.2641 144.029 40.0221 143.193 39.5381C142.357 39.0394 141.704 38.3574 141.235 37.4921C140.765 36.6268 140.531 35.6294 140.531 34.5001C140.531 33.3708 140.773 32.3734 141.257 31.5081C141.741 30.6428 142.401 29.9681 143.237 29.4841C144.073 28.9854 145.041 28.7361 146.141 28.7361C147.109 28.7361 147.989 28.9928 148.781 29.5061C149.573 30.0048 150.196 30.7308 150.651 31.6841C151.12 32.6374 151.355 33.7741 151.355 35.0941H148.869C148.883 34.1408 148.773 33.3561 148.539 32.7401C148.319 32.1241 147.996 31.6694 147.571 31.3761C147.145 31.0681 146.639 30.9141 146.053 30.9141C145.437 30.9141 144.909 31.0534 144.469 31.3321C144.043 31.6108 143.713 32.0214 143.479 32.5641C143.244 33.0921 143.127 33.7594 143.127 34.5661C143.127 35.2848 143.266 35.9008 143.545 36.4141C143.823 36.9274 144.197 37.3234 144.667 37.6021C145.151 37.8661 145.686 37.9981 146.273 37.9981C146.918 37.9981 147.453 37.8514 147.879 37.5581C148.304 37.2501 148.634 36.8614 148.869 36.3921L151.135 37.3601C150.827 37.9468 150.438 38.4601 149.969 38.9001C149.499 39.3401 148.935 39.6774 148.275 39.9121C147.615 40.1468 146.874 40.2641 146.053 40.2641ZM142.137 35.0941L142.159 33.1361H150.079V35.0941H142.137Z" fill="#124658"/>
<path d="M23.3311 27.0299C23.3406 27.0929 23.3796 27.1476 23.4361 27.1772C23.4925 27.2067 23.5597 27.2076 23.617 27.1795L31.9549 23.0864C32.0078 23.0604 32.0466 23.0125 32.0608 22.9553C32.1661 22.5331 32.2002 22.1144 32.2002 21.6629C32.2002 21.1637 32.131 20.7085 32.0641 20.3059C32.0534 20.2419 32.0125 20.1871 31.9542 20.1588L23.6163 16.1058C23.5595 16.0782 23.4931 16.079 23.437 16.108C23.381 16.137 23.3419 16.1907 23.3315 16.2529L23.3303 16.2603C23.2986 16.4511 23.2639 16.6596 23.2622 16.8712C23.2287 17.0846 23.2288 17.3321 23.2288 17.5594V17.5698C23.2288 17.6547 23.2369 17.7478 23.2446 17.8346L23.2462 17.8531C23.2546 17.9489 23.2621 18.0411 23.2621 18.1316C23.2621 18.1426 23.263 18.1536 23.2648 18.1644C23.2794 18.2518 23.2871 18.34 23.2952 18.4329L23.2962 18.445C23.3044 18.5383 23.3135 18.6404 23.333 18.7341C23.3461 18.797 23.3886 18.8499 23.4474 18.8761L29.6162 21.6264L23.4446 24.4911C23.3873 24.5177 23.3459 24.5699 23.333 24.6318C23.2995 24.7932 23.2639 25.0028 23.2622 25.2178C23.2288 25.4293 23.2288 25.6393 23.2288 25.8672V25.8764C23.2288 26.2109 23.2635 26.5828 23.3311 27.0299Z" fill="#FD5B4F"/>
<path fill-rule="evenodd" clip-rule="evenodd" d="M20.5642 11.8228C20.6206 11.8524 20.6597 11.9071 20.6692 11.9701C20.7367 12.4172 20.7715 12.789 20.7715 13.1236V13.1329C20.7715 13.3608 20.7715 13.5707 20.7381 13.7822C20.7363 13.9972 20.7008 14.2067 20.6672 14.3681C20.6544 14.43 20.613 14.4822 20.5556 14.5089L14.384 17.3735L20.5529 20.1239C20.6116 20.1501 20.6542 20.2029 20.6672 20.2659C20.6867 20.3596 20.6959 20.4617 20.704 20.555L20.7051 20.567C20.7132 20.6599 20.7209 20.7481 20.7354 20.8356C20.7372 20.8464 20.7381 20.8574 20.7381 20.8684C20.7381 20.9588 20.7457 21.0511 20.754 21.1469L20.7557 21.1653C20.7633 21.2521 20.7715 21.3452 20.7715 21.4302V21.4406C20.7715 21.6679 20.7715 21.9154 20.7381 22.1288C20.7363 22.3404 20.7017 22.5488 20.67 22.7396L20.6687 22.7471C20.6584 22.8093 20.6193 22.863 20.5632 22.892C20.5072 22.9209 20.4407 22.9217 20.384 22.8941L12.046 18.8412C11.9877 18.8128 11.9468 18.758 11.9362 18.6941C11.8692 18.2915 11.8 17.8363 11.8 17.3371C11.8 16.8855 11.8341 16.4669 11.9394 16.0447C11.9537 15.9875 11.9924 15.9395 12.0453 15.9136L20.3833 11.8205C20.4405 11.7924 20.5077 11.7932 20.5642 11.8228Z" fill="#FD5B4F"/>
<path fill-rule="evenodd" clip-rule="evenodd" d="M39 4.5H5C2.51472 4.5 0.5 6.51472 0.5 9V30C0.5 32.4853 2.51472 34.5 5 34.5H39C41.4853 34.5 43.5 32.4853 43.5 30V9C43.5 6.51472 41.4853 4.5 39 4.5ZM3 9C3 7.89543 3.89543 7 5 7H39C40.1046 7 41 7.89543 41 9V30C41 31.1046 40.1046 32 39 32H5C3.89543 32 3 31.1046 3 30V9Z" fill="#FD5B4F"/>
<path d="M5.25 37C4.55964 37 4 37.5596 4 38.25C4 38.9404 4.55964 39.5 5.25 39.5H38.75C39.4404 39.5 40 38.9404 40 38.25C40 37.5596 39.4404 37 38.75 37H5.25Z" fill="#FD5B4F"/>
</svg>
