<svg width="154" height="44" viewBox="0 0 154 44" fill="none" xmlns="http://www.w3.org/2000/svg">
<path d="M23.3311 27.0299C23.3406 27.0929 23.3796 27.1476 23.4361 27.1772C23.4925 27.2067 23.5597 27.2076 23.617 27.1795L31.9549 23.0864C32.0078 23.0604 32.0466 23.0125 32.0608 22.9553C32.1661 22.5331 32.2002 22.1144 32.2002 21.6629C32.2002 21.1637 32.131 20.7085 32.0641 20.3059C32.0534 20.2419 32.0125 20.1871 31.9542 20.1588L23.6163 16.1058C23.5595 16.0782 23.4931 16.079 23.437 16.108C23.381 16.137 23.3419 16.1907 23.3315 16.2529L23.3303 16.2603C23.2986 16.4511 23.2639 16.6596 23.2622 16.8712C23.2287 17.0846 23.2288 17.3321 23.2288 17.5594V17.5698C23.2288 17.6547 23.2369 17.7478 23.2446 17.8346L23.2462 17.8531C23.2546 17.9489 23.2621 18.0411 23.2621 18.1316C23.2621 18.1426 23.263 18.1536 23.2648 18.1644C23.2794 18.2518 23.2871 18.34 23.2952 18.4329L23.2962 18.445C23.3044 18.5383 23.3135 18.6404 23.333 18.7341C23.3461 18.797 23.3886 18.8499 23.4474 18.8761L29.6162 21.6264L23.4446 24.4911C23.3873 24.5177 23.3459 24.5699 23.333 24.6318C23.2995 24.7932 23.2639 25.0028 23.2622 25.2178C23.2288 25.4293 23.2288 25.6393 23.2288 25.8672V25.8764C23.2288 26.2109 23.2635 26.5828 23.3311 27.0299Z" fill="#FD5B4F"/>
<path fill-rule="evenodd" clip-rule="evenodd" d="M20.5642 11.8228C20.6206 11.8524 20.6597 11.9071 20.6692 11.9701C20.7367 12.4172 20.7715 12.789 20.7715 13.1236V13.1329C20.7715 13.3608 20.7715 13.5707 20.7381 13.7822C20.7363 13.9972 20.7008 14.2067 20.6672 14.3681C20.6544 14.43 20.613 14.4822 20.5556 14.5089L14.384 17.3735L20.5529 20.1239C20.6116 20.1501 20.6542 20.2029 20.6672 20.2659C20.6867 20.3596 20.6959 20.4617 20.704 20.555L20.7051 20.567C20.7132 20.6599 20.7209 20.7481 20.7354 20.8356C20.7372 20.8464 20.7381 20.8574 20.7381 20.8684C20.7381 20.9588 20.7457 21.0511 20.754 21.1469L20.7557 21.1653C20.7633 21.2521 20.7715 21.3452 20.7715 21.4302V21.4406C20.7715 21.6679 20.7715 21.9154 20.7381 22.1288C20.7363 22.3404 20.7017 22.5488 20.67 22.7396L20.6687 22.7471C20.6584 22.8093 20.6193 22.863 20.5632 22.892C20.5072 22.9209 20.4407 22.9217 20.384 22.8941L12.046 18.8412C11.9877 18.8128 11.9468 18.758 11.9362 18.6941C11.8692 18.2915 11.8 17.8363 11.8 17.3371C11.8 16.8855 11.8341 16.4669 11.9394 16.0447C11.9537 15.9875 11.9924 15.9395 12.0453 15.9136L20.3833 11.8205C20.4405 11.7924 20.5077 11.7932 20.5642 11.8228Z" fill="#FD5B4F"/>
<path fill-rule="evenodd" clip-rule="evenodd" d="M39 4.5H5C2.51472 4.5 0.5 6.51472 0.5 9V30C0.5 32.4853 2.51472 34.5 5 34.5H39C41.4853 34.5 43.5 32.4853 43.5 30V9C43.5 6.51472 41.4853 4.5 39 4.5ZM3 9C3 7.89543 3.89543 7 5 7H39C40.1046 7 41 7.89543 41 9V30C41 31.1046 40.1046 32 39 32H5C3.89543 32 3 31.1046 3 30V9Z" fill="#FD5B4F"/>
<path d="M5.25 37C4.55964 37 4 37.5596 4 38.25C4 38.9404 4.55964 39.5 5.25 39.5H38.75C39.4404 39.5 40 38.9404 40 38.25C40 37.5596 39.4404 37 38.75 37H5.25Z" fill="#FD5B4F"/>
</svg>
