<svg width="33" height="32" viewBox="0 0 33 32" fill="none" xmlns="http://www.w3.org/2000/svg">
<g id="Frame 193" clip-path="url(#clip0_37_5931)">
<path id="Vector" d="M0.573425 4.092V20.739L11.8344 32H28.4814C30.7414 32 32.5734 30.168 32.5734 27.908V4.092C32.5734 1.832 30.7414 0 28.4814 0H4.66543C2.40543 0 0.573425 1.832 0.573425 4.092Z" fill="#FD5B4F"/>
<g id="Group">
<path id="Vector_2" d="M24.5194 17.4181V23.5801C24.5194 24.5481 23.7354 25.3321 22.7674 25.3321C22.2094 25.3321 21.6854 25.0671 21.3554 24.6171L12.9664 13.2021C12.4204 12.4591 11.2424 12.8451 11.2424 13.7671V25.3311H8.62842V8.42009C8.62842 7.45209 9.41242 6.66809 10.3804 6.66809H10.4354C10.9924 6.66809 11.5164 6.93309 11.8464 7.38109L20.1564 18.6711C20.7034 19.4131 21.8804 19.0271 21.8804 18.1051V11.5371L23.1634 13.2821C24.0444 14.4811 24.5194 15.9301 24.5194 17.4181Z" fill="white"/>
<path id="Vector_3" d="M24.5194 7.98798V12.822L22.5974 10.211C22.1314 9.57798 21.8804 8.81298 21.8804 8.02698C21.8804 7.29798 22.4764 6.66498 23.2064 6.66798C23.5694 6.66998 23.8964 6.81698 24.1334 7.05498C24.3714 7.29298 24.5194 7.62298 24.5194 7.98798Z" fill="white"/>
</g>
<path id="Vector_4" d="M0.573425 20.739L11.8344 32V24.831C11.8344 22.571 10.0024 20.739 7.74243 20.739H0.573425Z" fill="#FD8A81"/>
</g>
<defs>
<clipPath id="clip0_37_5931">
<rect width="32" height="32" fill="white" transform="translate(0.573425)"/>
</clipPath>
</defs>
</svg>
